<svg xmlns="http://www.w3.org/2000/svg" height="1024" preserveAspectRatio="none" style="display: block;" version="1.1" viewBox="0 0 2048 2048" width="1024">
<path d="M 1194.7 583.424 C 1197.71 584.891 1216.4 600.795 1219.69 603.613 C 1242.46 623.136 1267.04 642.751 1288.93 663.21 C 1285.28 717.239 1279.42 772.375 1274.66 826.4 C 1268.86 895.084 1262.66 963.733 1256.06 1032.34 L 1244.18 1020.27 C 1216.89 991.83 1190.48 962.351 1163.27 933.795 C 1153.89 923.943 1144.22 913.41 1135.63 902.874 L 1194.7 583.424 z" fill="#FFFFFF" transform="translate(0,0)"></path>
<path d="M 853.901 583.987 C 854.51 584.629 909.185 880.571 913.59 903.872 C 877.852 938.747 843.06 981.381 807.389 1017.65 L 792.349 1032.89 C 790.074 1020.62 788.702 995.269 787.63 982.204 L 780.019 894.475 L 769.227 767.096 C 766.23 734.263 761.698 695.23 760.824 662.739 C 766.652 657.116 773.987 650.721 780.374 645.771 C 805.579 626.239 829.202 603.886 853.901 583.987 z" fill="#FFFFFF" transform="translate(0,0)"></path>
<path d="M 937.797 990.522 C 945.109 1000.06 1008.09 1193.12 1015.34 1220.78 C 1016.04 1223.45 1015.78 1260.63 1015.78 1267.53 L 1016.18 1356.46 C 997.083 1371.49 975.822 1390.36 957.018 1406.2 L 944.167 1416.64 C 930.325 1375.84 918.105 1330.71 904.884 1289.5 C 903.409 1281.18 889.892 1246.06 890.739 1240.58 C 903.569 1157.49 925.513 1073.73 937.797 990.522 z" fill="#FFFFFF" transform="translate(0,0)"></path>
<path d="M 1110.34 991.636 C 1113.9 1002.51 1117.52 1035.7 1120.54 1049.52 C 1134.2 1111.99 1144.85 1176.89 1159.27 1239.04 C 1152.2 1257.89 1146.14 1280.41 1139.98 1300.05 C 1127.41 1338.85 1115.31 1377.8 1103.69 1416.9 L 1093.32 1409.14 C 1073.52 1394.25 1050.7 1374.99 1033.98 1356.68 L 1033.76 1267.83 C 1033.73 1258.24 1033.1 1229.35 1034.41 1221.21 C 1037.49 1201.99 1048.63 1173.39 1055.1 1153.85 L 1110.34 991.636 z" fill="#FFFFFF" transform="translate(0,0)"></path>
<path d="M 1546.96 305.102 L 1547.52 305.678 C 1541.94 314.359 1528.53 331.73 1521.87 341.015 C 1499.06 373.046 1475.81 404.771 1452.15 436.18 L 1297.89 643.32 C 1280.88 630.114 1263.94 615.777 1247.37 601.968 L 1201.48 564.014 C 1217.11 550.965 1235.58 537.896 1252 525.597 C 1281.65 502.99 1311.48 480.621 1341.49 458.493 C 1408.41 408.27 1478.96 353.249 1546.96 305.102 z" fill="#FFFFFF" transform="translate(0,0)"></path>
<path d="M 499.271 303.717 C 503.168 305.243 520.488 319.091 525.551 322.88 L 596.415 376.074 C 656.124 419.935 715.443 464.323 774.365 509.234 C 794.695 524.651 829.668 549.066 847.76 564.651 C 835.063 576.331 819.667 588.772 806.368 600.03 C 788.751 614.821 770.887 629.315 752.782 643.505 C 745.826 635.302 736.587 622.221 729.936 613.406 L 686.845 556.247 L 562.709 389.832 C 541.55 361.204 520.958 331.849 499.271 303.717 z" fill="#FFFFFF" transform="translate(0,0)"></path>
<path d="M 917.788 930.549 L 919.153 931.433 C 928.682 950.672 915.367 1003.74 911.363 1025.63 C 905.308 1058.7 898.775 1091.68 891.763 1124.56 C 884.599 1158.98 876.989 1194.78 866.1 1228.23 C 842.526 1217.25 814.467 1202.01 791.379 1189.58 L 748.255 1167.34 C 747.636 1150.19 748.048 1130.93 748.106 1113.62 C 770.647 1092.58 795.243 1062.14 816.603 1039.27 L 882.483 969.193 C 893.941 956.935 907.157 943.361 917.788 930.549 z" fill="#FFFFFF" transform="translate(0,0)"></path>
<path d="M 1129.17 929.567 C 1147.22 948.476 1165.08 968.425 1183 987.597 C 1201.42 1006.95 1219.73 1026.4 1237.93 1045.95 C 1259.36 1069.36 1278.45 1091.06 1300.56 1114.31 C 1300.95 1130.19 1301.03 1151.37 1300.27 1167.01 C 1289.47 1173.63 1273.19 1181.54 1261.62 1187.57 C 1247.15 1195.39 1195.46 1222.74 1181.66 1227.16 C 1164.53 1162.24 1150.22 1096.61 1138.77 1030.45 C 1132.95 998.017 1123.28 962.119 1129.17 929.567 z" fill="#FFFFFF" transform="translate(0,0)"></path>
<path d="M 488.042 330.196 C 489.187 335.081 490.016 338.334 490.546 343.336 C 528.214 480.292 560.631 621.233 598.768 757.83 C 562.209 757.236 525.645 756.947 489.081 756.965 L 488.822 398.525 C 487.042 386.237 487.837 344.243 488.042 330.196 z" fill="#FFFFFF" transform="translate(0,0)"></path>
<path d="M 488.042 330.196 C 489.187 335.081 490.016 338.334 490.546 343.336 C 490.449 343.348 489.434 343.424 489.414 343.636 C 488.086 357.768 489.406 385.928 488.822 398.525 C 487.042 386.237 487.837 344.243 488.042 330.196 z" fill="#FFFFFF" transform="translate(0,0)"></path>
<path d="M 1558.98 337.986 C 1559.37 339.737 1559.77 341.483 1560.2 343.224 L 1559.93 355.26 C 1561.43 399.443 1559.65 449.549 1559.63 494.162 L 1559.89 757.65 C 1525.95 758.673 1486.22 757.496 1451.98 757.274 C 1455.04 742.428 1460.44 723.528 1464.26 708.496 L 1489.68 609.163 L 1557.48 345.566 L 1558.98 337.986 z" fill="#FFFFFF" transform="translate(0,0)"></path>
<path d="M 738.749 1223.14 C 740.494 1228.97 740.907 1287.12 741.099 1297.43 C 741.522 1316.08 742.208 1334.71 743.154 1353.34 C 750.644 1356.58 759.82 1361.11 767.107 1365.04 C 813.76 1390.2 864.654 1412.78 910.25 1439.61 C 899.439 1454.41 870.455 1473.08 854.439 1486.25 C 845.969 1482.24 829.409 1471.83 820.713 1466.71 C 772.802 1437.04 723.129 1409.26 674.504 1380.77 C 661.642 1373.24 643.921 1362.44 630.544 1356.72 C 634.292 1351.26 639.057 1345.18 643.324 1340.13 C 675.711 1301.8 706.319 1261.32 738.749 1223.14 z" fill="#FFFFFF" transform="translate(0,0)"></path>
<path d="M 1308.96 1224.36 C 1316.63 1228.78 1405.66 1340.84 1417.82 1355.81 C 1395.81 1369.62 1370.71 1383.24 1347.98 1396.18 C 1308.07 1418.84 1268.33 1441.79 1228.75 1465.04 C 1217.6 1472.01 1204.04 1479.92 1192.46 1485.94 C 1177.97 1474.33 1160.11 1460.54 1145.02 1449.86 C 1144.05 1445.98 1143.2 1441.39 1142.36 1437.42 C 1150.23 1433.63 1158.52 1429.16 1166.11 1424.79 C 1211.53 1398.63 1260.19 1377.58 1306.13 1352.65 C 1305.54 1312.45 1307.75 1264.94 1308.96 1224.36 z" fill="#FFFFFF" transform="translate(0,0)"></path>
<path d="M 1556.45 774.509 L 1557.07 774.449 L 1557.65 775.243 C 1554.79 779.583 1544.31 790.322 1540.32 794.651 C 1528 807.918 1515.81 821.31 1503.76 834.825 L 1330.87 1027.39 C 1320.61 1038.84 1305.46 1056.35 1294.02 1067.2 C 1293.03 1068.14 1292.03 1067.33 1290.25 1066.73 C 1287.61 1064.43 1285.39 1061.76 1283.07 1059.14 C 1286.75 1048.16 1302.35 1024.12 1309.06 1012.99 L 1348.94 945.875 L 1418.3 827.972 C 1428.07 811.424 1439.24 791.009 1449.47 775.248 C 1485.13 775.361 1520.79 775.115 1556.45 774.509 z" fill="#FFFFFF" transform="translate(0,0)"></path>
<path d="M 489.516 774.936 C 526.233 775.83 562.954 776.531 599.678 777.038 C 608.258 789.62 617.168 805.558 624.956 818.853 L 665.7 888.597 C 689.395 928.097 712.803 967.768 735.924 1007.61 C 744.509 1022.18 757.47 1042.77 764.683 1058.05 C 765.699 1060.21 764.09 1061.73 762.844 1063.71 C 761.399 1064.83 759.868 1065.91 758.385 1066.99 C 751.924 1065.52 612.833 910.346 595.733 891.577 C 564.626 857.433 520.746 809.46 489.516 774.936 z" fill="#FFFFFF" transform="translate(0,0)"></path>
<path d="M 1013.83 1386.93 C 1015.99 1389.64 1015.03 1561.75 1014.9 1580.66 C 985.325 1569.51 943.942 1550.72 915.375 1537.23 C 896.734 1524.5 886.194 1516.86 868.528 1502.54 C 887.682 1483.91 918.725 1461.25 940.643 1444.63 C 965.854 1425.52 989.089 1406.31 1013.83 1386.93 z" fill="#FFFFFF" transform="translate(0,0)"></path>
<path d="M 1035 1386.8 C 1043.24 1392.06 1059.75 1405.56 1068 1412.06 C 1093.13 1431.91 1117.96 1452.13 1142.49 1472.72 C 1152.04 1480.61 1170.46 1496.1 1180.32 1502.5 C 1165.84 1514.31 1150.42 1526.03 1134.08 1535.11 C 1100.68 1550.49 1069.95 1567.65 1035.25 1581.43 L 1035 1386.8 z" fill="#FFFFFF" transform="translate(0,0)"></path>
<path d="M 1416.24 1375.13 L 1417.01 1376.45 C 1414.33 1384.44 1387.41 1428.62 1381.4 1438.57 C 1360.36 1473.37 1339.35 1509.99 1317.6 1544.23 C 1296.64 1537.38 1266.47 1523.39 1245.7 1514.36 L 1211.49 1498.79 C 1279.86 1458.32 1347.76 1414.34 1416.24 1375.13 z" fill="#FFFFFF" transform="translate(0,0)"></path>
<path d="M 629.242 1374.54 C 640.309 1379.12 676.043 1402.02 688.17 1409.35 C 712.826 1423.95 737.404 1438.68 761.901 1453.55 C 786.34 1468.54 810.016 1483.9 834.797 1498.42 C 824.884 1503.41 814.139 1508.24 804.033 1512.96 C 780.119 1523.7 754.161 1533.62 730.908 1544.96 C 726.363 1538.15 721.217 1528.53 716.831 1521.3 C 705.685 1503.15 694.681 1484.92 683.821 1466.61 C 665.49 1435.84 646.48 1405.93 629.242 1374.54 z" fill="#FFFFFF" transform="translate(0,0)"></path>
<path d="M 868.37 1527.81 C 886.774 1539.24 904.456 1555.75 922.859 1567.23 C 958.228 1589.29 977.6 1622.72 1016.9 1640.35 L 1016.83 1654.16 C 1007.3 1658.31 997.39 1661.56 987.563 1664.96 C 962.658 1672.39 935.485 1685.31 908.887 1692.01 C 899.724 1659.58 891.135 1627 883.126 1594.27 C 877.902 1573.43 871.132 1548.84 868.37 1527.81 z" fill="#FFFFFF" transform="translate(0,0)"></path>
<path d="M 1178.48 1530.93 L 1179.1 1531.54 C 1180.27 1540.15 1147.13 1676.16 1142.24 1694.88 C 1118.91 1687.16 1089.69 1674.81 1066.27 1665.62 C 1055.92 1661.9 1043.56 1657.85 1033.89 1652.96 L 1032.8 1641.23 C 1067.37 1625.19 1078.4 1613.18 1101.79 1585.04 C 1103.89 1582.52 1126.59 1567.67 1131.24 1564.47 C 1147.17 1553.55 1162.92 1542.37 1178.48 1530.93 z" fill="#FFFFFF" transform="translate(0,0)"></path>
<path d="M 1207.37 1517.44 C 1239.25 1528.73 1278.2 1546.13 1309.96 1559.37 C 1301.81 1567.55 1288.19 1578.83 1279.28 1586.68 L 1220.39 1638.31 C 1201.71 1655 1182.88 1671.52 1163.9 1687.88 L 1187.98 1593.5 C 1194.62 1567.97 1201.66 1543.22 1207.37 1517.44 z" fill="#FFFFFF" transform="translate(0,0)"></path>
<path d="M 838.885 1519 L 840.361 1519.11 C 842.492 1521.16 849.695 1551.76 851.354 1557.95 C 862.954 1602.19 875.193 1646.26 888.065 1690.15 C 876.485 1682.57 846.406 1653.84 834.081 1642.67 L 772.868 1589.05 C 762.787 1580.24 748.3 1568.39 739.502 1558.95 C 750.733 1553.96 762.683 1550.05 774.068 1545.33 C 795.652 1536.38 817.138 1527.56 838.885 1519 z" fill="#FFFFFF" transform="translate(0,0)"></path>
<path d="M 769.962 1228.8 C 779.163 1232.52 792.86 1239.82 802.218 1244.43 L 858.374 1271.72 C 860.352 1277.01 862.236 1282.9 863.883 1288.32 C 873.231 1319.06 884.476 1350.34 892.132 1381.52 C 862.44 1366.1 819.767 1347.01 788.611 1332.93 C 777.797 1288.59 774.305 1275.23 769.962 1228.8 z" fill="#FFFFFF" transform="translate(0,0)"></path>
<path d="M 1277.99 1229.97 C 1278.05 1230.02 1278.12 1230.06 1278.15 1230.12 C 1283.45 1239.62 1264.56 1316.8 1260.27 1331.02 C 1228.73 1349.29 1190.5 1364.24 1157.93 1381.39 L 1157.61 1381.22 C 1155.98 1374.67 1187.54 1287.91 1189.47 1273.01 C 1194.49 1270.23 1199.69 1267.87 1204.85 1265.36 C 1229.24 1253.52 1253.43 1241.48 1277.99 1229.97 z" fill="#FFFFFF" transform="translate(0,0)"></path>
<path d="M 940.619 918.206 C 954.789 922.289 998.267 945.172 1014.25 952.772 C 1014.8 1018.84 1014.72 1084.9 1014.02 1150.97 L 1012.78 1150.25 C 1004.4 1131.9 991.76 1089.71 985.019 1068.95 C 973.187 1032.89 962.064 996.599 951.658 960.101 C 948.182 947.543 943.132 930.742 940.619 918.206 z" fill="#FFFFFF" transform="translate(0,0)"></path>
<path d="M 1035.17 952.654 C 1050.58 945.288 1065.93 937.796 1081.22 930.179 C 1089.4 926.08 1100.95 919.551 1109.16 916.333 C 1105.75 932.668 1098.62 954.732 1093.77 971.128 C 1081.7 1011.37 1068.94 1051.41 1055.5 1091.21 C 1051.76 1102.68 1047.89 1114.1 1043.88 1125.48 C 1042.26 1130.03 1037.19 1143.22 1036.3 1147.39 L 1034.66 1145.9 C 1035.51 1125.2 1035 1101.83 1034.99 1080.96 L 1035.17 952.654 z" fill="#FFFFFF" transform="translate(0,0)"></path>
<path d="M 1013.51 1671.9 C 1013.5 1671.9 1015.66 1671.48 1015.67 1672.09 C 1016.35 1694.44 1016.1 1717.35 1015.95 1739.8 C 995.146 1732.52 970.584 1724.75 950.349 1716.78 C 941.577 1714.31 930.106 1710.18 921.434 1707.07 C 949.555 1695.05 984.49 1682.34 1013.51 1671.9 z" fill="#FFFFFF" transform="translate(0,0)"></path>
<path d="M 1032.99 1671.24 C 1063.48 1682.36 1096.46 1695.8 1127.12 1707.66 L 1103.74 1716.09 C 1080.53 1723.57 1056.44 1732.2 1033.3 1740.13 L 1032.99 1671.24 z" fill="#FFFFFF" transform="translate(0,0)"></path>
<path d="M 1558.98 337.986 C 1559.14 336.851 1559.07 335.939 1559.84 335.134 C 1562.17 334.686 1560.34 342.507 1560.2 343.224 C 1559.77 341.483 1559.37 339.737 1558.98 337.986 z" fill="#FFFFFF" transform="translate(0,0)"></path>
<path d="M 1034.66 1145.9 L 1036.3 1147.39 C 1036.03 1147.85 1034.72 1150.98 1033.69 1150.41 C 1033.3 1149.07 1034.26 1147.12 1034.66 1145.9 z" fill="#FFFFFF" transform="translate(0,0)"></path>
<metadata><recraft-signature>{"signed_by": "recraft", "signature_b64": "h7VvG1ryq61vooak9c6YdpmyETs6RQciHs8MZ68Exax1O/bFyFC0DRsh09ZMCaxIMp/wSDgvx4H9meS+0PDlDQ==", "signing_algo": "Ed25519", "generation_timestamp": 1782562240, "identifier": "14b591e3-317e-4e72-87f7-9a7acbe41f1f"}</recraft-signature></metadata></svg>